<svg width="340" height="87" viewBox="0 0 340 87" fill="none" xmlns="http://www.w3.org/2000/svg">
<path d="M19.9375 50.75C19.9375 54.5562 20.7984 58.1359 22.5203 61.4891C24.2422 64.8422 26.6438 67.6364 29.725 69.8719C29.4833 69.1469 29.3021 68.4068 29.1813 67.6516C29.0604 66.8963 29 66.1562 29 65.4312C29 63.4979 29.3625 61.6854 30.0875 59.9937C30.8125 58.3021 31.8698 56.7615 33.2594 55.3719L43.5 45.3125L53.7406 55.3719C55.1302 56.7615 56.1875 58.3021 56.9125 59.9937C57.6375 61.6854 58 63.4979 58 65.4312C58 66.1562 57.9396 66.8963 57.8188 67.6516C57.6979 68.4068 57.5167 69.1469 57.275 69.8719C60.3563 67.6364 62.7578 64.8422 64.4797 61.4891C66.2016 58.1359 67.0625 54.5562 67.0625 50.75C67.0625 47.4875 66.3677 44.3005 64.9782 41.1891C63.5886 38.0776 61.5948 35.2229 58.9969 32.625C57.7281 33.5312 56.399 34.2411 55.0094 34.7547C53.6198 35.2682 52.2302 35.525 50.8406 35.525C47.1552 35.525 44.1042 34.2714 41.6875 31.7641C39.2708 29.2568 38.0625 26.1 38.0625 22.2937V20.4812C35.2833 22.475 32.7761 24.6802 30.5406 27.0969C28.3052 29.5135 26.4021 32.0359 24.8313 34.6641C23.2604 37.2922 22.0521 39.9807 21.2063 42.7297C20.3604 45.4786 19.9375 48.1521 19.9375 50.75ZM43.5 52.925L37.0656 59.2687C36.2198 60.1146 35.5703 61.051 35.1172 62.0781C34.6641 63.1052 34.4375 64.2229 34.4375 65.4312C34.4375 67.9083 35.3136 70.0078 37.0656 71.7297C38.8177 73.4516 40.9625 74.3125 43.5 74.3125C46.0375 74.3125 48.1823 73.4516 49.9344 71.7297C51.6865 70.0078 52.5625 67.9083 52.5625 65.4312C52.5625 64.2229 52.336 63.1052 51.8828 62.0781C51.4297 61.051 50.7802 60.1146 49.9344 59.2687L43.5 52.925ZM43.5 10.875V22.8375C43.5 24.8917 44.2099 26.6135 45.6297 28.0031C47.0495 29.3927 48.7865 30.0875 50.8406 30.0875C51.9281 30.0875 52.9401 29.8609 53.8766 29.4078C54.813 28.9547 55.6438 28.275 56.3688 27.3687L58 25.375C62.4709 27.9125 66.0052 31.4469 68.6032 35.9781C71.2011 40.5094 72.5 45.4333 72.5 50.75C72.5 58.8458 69.6907 65.7031 64.0719 71.3219C58.4531 76.9406 51.5959 79.75 43.5 79.75C35.4042 79.75 28.5469 76.9406 22.9281 71.3219C17.3094 65.7031 14.5 58.8458 14.5 50.75C14.5 43.0167 17.0979 35.5703 22.2938 28.4109C27.4896 21.2516 34.5583 15.4062 43.5 10.875Z" fill="black"/>
<path d="M89.5284 62V32.9091H95.679V44.9119H108.165V32.9091H114.301V62H108.165V49.983H95.679V62H89.5284ZM146.105 47.4545C146.105 50.6269 145.504 53.3258 144.301 55.5511C143.108 57.7765 141.479 59.4763 139.415 60.6506C137.36 61.8153 135.049 62.3977 132.483 62.3977C129.898 62.3977 127.578 61.8106 125.523 60.6364C123.468 59.4621 121.844 57.7623 120.651 55.5369C119.457 53.3116 118.861 50.6174 118.861 47.4545C118.861 44.2822 119.457 41.5833 120.651 39.358C121.844 37.1326 123.468 35.4375 125.523 34.2727C127.578 33.0985 129.898 32.5114 132.483 32.5114C135.049 32.5114 137.36 33.0985 139.415 34.2727C141.479 35.4375 143.108 37.1326 144.301 39.358C145.504 41.5833 146.105 44.2822 146.105 47.4545ZM139.869 47.4545C139.869 45.3996 139.562 43.6667 138.946 42.2557C138.34 40.8447 137.483 39.7746 136.375 39.0455C135.267 38.3163 133.97 37.9517 132.483 37.9517C130.996 37.9517 129.699 38.3163 128.591 39.0455C127.483 39.7746 126.621 40.8447 126.006 42.2557C125.4 43.6667 125.097 45.3996 125.097 47.4545C125.097 49.5095 125.4 51.2424 126.006 52.6534C126.621 54.0644 127.483 55.1345 128.591 55.8636C129.699 56.5928 130.996 56.9574 132.483 56.9574C133.97 56.9574 135.267 56.5928 136.375 55.8636C137.483 55.1345 138.34 54.0644 138.946 52.6534C139.562 51.2424 139.869 49.5095 139.869 47.4545ZM148.225 37.9801V32.9091H172.117V37.9801H163.211V62H157.131V37.9801H148.225ZM209.642 32.9091V62H204.33L191.673 43.6903H191.46V62H185.31V32.9091H190.707L203.264 51.2045H203.52V32.9091H209.642ZM214.724 62V32.9091H234.326V37.9801H220.874V44.9119H233.317V49.983H220.874V56.929H234.383V62H214.724ZM245.764 62L237.44 32.9091H244.159L248.974 53.1222H249.216L254.528 32.9091H260.281L265.58 53.1648H265.835L270.651 32.9091H277.369L269.045 62H263.051L257.511 42.9801H257.284L251.759 62H245.764ZM296.169 41.2756C296.055 40.1297 295.568 39.2396 294.706 38.6051C293.844 37.9706 292.675 37.6534 291.197 37.6534C290.194 37.6534 289.346 37.7955 288.655 38.0795C287.964 38.3542 287.433 38.7377 287.064 39.2301C286.704 39.7225 286.524 40.2812 286.524 40.9062C286.505 41.4271 286.614 41.8816 286.851 42.2699C287.097 42.6581 287.433 42.9943 287.859 43.2784C288.286 43.553 288.778 43.7945 289.337 44.0028C289.895 44.2017 290.492 44.3722 291.126 44.5142L293.74 45.1392C295.009 45.4233 296.174 45.8021 297.234 46.2756C298.295 46.7491 299.214 47.3314 299.99 48.0227C300.767 48.714 301.368 49.5284 301.794 50.4659C302.23 51.4034 302.452 52.4782 302.462 53.6903C302.452 55.4706 301.998 57.0142 301.098 58.321C300.208 59.6184 298.92 60.6269 297.234 61.3466C295.558 62.0568 293.536 62.4119 291.169 62.4119C288.821 62.4119 286.775 62.0521 285.033 61.3324C283.3 60.6127 281.946 59.5473 280.97 58.1364C280.004 56.7159 279.498 54.9593 279.45 52.8665H285.402C285.468 53.8419 285.748 54.6562 286.24 55.3097C286.742 55.9536 287.41 56.4413 288.243 56.7727C289.086 57.0947 290.037 57.2557 291.098 57.2557C292.14 57.2557 293.044 57.1042 293.811 56.8011C294.588 56.4981 295.189 56.0767 295.615 55.5369C296.041 54.9972 296.254 54.3769 296.254 53.6761C296.254 53.0227 296.06 52.4735 295.672 52.0284C295.293 51.5833 294.734 51.2045 293.996 50.892C293.267 50.5795 292.372 50.2955 291.311 50.0398L288.143 49.2443C285.691 48.6477 283.754 47.715 282.334 46.446C280.913 45.1771 280.208 43.4678 280.217 41.3182C280.208 39.5568 280.677 38.018 281.624 36.7017C282.58 35.3854 283.892 34.358 285.558 33.6193C287.225 32.8807 289.119 32.5114 291.24 32.5114C293.399 32.5114 295.284 32.8807 296.893 33.6193C298.513 34.358 299.772 35.3854 300.672 36.7017C301.571 38.018 302.036 39.5426 302.064 41.2756H296.169ZM313.715 32.9091L313.161 53.2784H307.962L307.394 32.9091H313.715ZM310.562 62.3693C309.624 62.3693 308.819 62.0379 308.147 61.375C307.475 60.7027 307.143 59.8977 307.153 58.9602C307.143 58.0322 307.475 57.2367 308.147 56.5739C308.819 55.911 309.624 55.5795 310.562 55.5795C311.461 55.5795 312.252 55.911 312.934 56.5739C313.616 57.2367 313.961 58.0322 313.971 58.9602C313.961 59.5852 313.796 60.1581 313.474 60.679C313.161 61.1903 312.749 61.6023 312.238 61.9148C311.727 62.2178 311.168 62.3693 310.562 62.3693ZM326.684 32.9091L326.13 53.2784H320.931L320.363 32.9091H326.684ZM323.531 62.3693C322.593 62.3693 321.788 62.0379 321.116 61.375C320.443 60.7027 320.112 59.8977 320.121 58.9602C320.112 58.0322 320.443 57.2367 321.116 56.5739C321.788 55.911 322.593 55.5795 323.531 55.5795C324.43 55.5795 325.221 55.911 325.903 56.5739C326.585 57.2367 326.93 58.0322 326.94 58.9602C326.93 59.5852 326.764 60.1581 326.442 60.679C326.13 61.1903 325.718 61.6023 325.207 61.9148C324.695 62.2178 324.137 62.3693 323.531 62.3693ZM339.653 32.9091L339.099 53.2784H333.9L333.332 32.9091H339.653ZM336.499 62.3693C335.562 62.3693 334.757 62.0379 334.085 61.375C333.412 60.7027 333.081 59.8977 333.09 58.9602C333.081 58.0322 333.412 57.2367 334.085 56.5739C334.757 55.911 335.562 55.5795 336.499 55.5795C337.399 55.5795 338.19 55.911 338.871 56.5739C339.553 57.2367 339.899 58.0322 339.908 58.9602C339.899 59.5852 339.733 60.1581 339.411 60.679C339.099 61.1903 338.687 61.6023 338.175 61.9148C337.664 62.2178 337.105 62.3693 336.499 62.3693Z" fill="black"/>
</svg>
