<svg width="956" height="108" viewBox="0 0 956 108" fill="none" xmlns="http://www.w3.org/2000/svg">
<path d="M194.977 32.4545V79H186.477L166.227 49.7045H165.886V79H156.045V32.4545H164.682L184.773 61.7273H185.182V32.4545H194.977ZM245.881 55.7273C245.881 60.803 244.919 65.1212 242.994 68.6818C241.085 72.2424 238.479 74.9621 235.176 76.8409C231.888 78.7045 228.191 79.6364 224.085 79.6364C219.949 79.6364 216.237 78.697 212.949 76.8182C209.661 74.9394 207.063 72.2197 205.153 68.6591C203.244 65.0985 202.29 60.7879 202.29 55.7273C202.29 50.6515 203.244 46.3333 205.153 42.7727C207.063 39.2121 209.661 36.5 212.949 34.6364C216.237 32.7576 219.949 31.8182 224.085 31.8182C228.191 31.8182 231.888 32.7576 235.176 34.6364C238.479 36.5 241.085 39.2121 242.994 42.7727C244.919 46.3333 245.881 50.6515 245.881 55.7273ZM235.903 55.7273C235.903 52.4394 235.411 49.6667 234.426 47.4091C233.456 45.1515 232.085 43.4394 230.312 42.2727C228.54 41.1061 226.464 40.5227 224.085 40.5227C221.706 40.5227 219.631 41.1061 217.858 42.2727C216.085 43.4394 214.706 45.1515 213.722 47.4091C212.752 49.6667 212.267 52.4394 212.267 55.7273C212.267 59.0152 212.752 61.7879 213.722 64.0455C214.706 66.303 216.085 68.0152 217.858 69.1818C219.631 70.3485 221.706 70.9318 224.085 70.9318C226.464 70.9318 228.54 70.3485 230.312 69.1818C232.085 68.0152 233.456 66.303 234.426 64.0455C235.411 61.7879 235.903 59.0152 235.903 55.7273ZM249.273 40.5682V32.4545H287.5V40.5682H273.25V79H263.523V40.5682H249.273ZM303.636 32.4545V79H293.795V32.4545H303.636ZM352.801 48.75H342.847C342.665 47.4621 342.294 46.3182 341.733 45.3182C341.172 44.303 340.453 43.4394 339.574 42.7273C338.695 42.0151 337.68 41.4697 336.528 41.0909C335.392 40.7121 334.157 40.5227 332.824 40.5227C330.415 40.5227 328.316 41.1212 326.528 42.3182C324.741 43.5 323.354 45.2273 322.369 47.5C321.384 49.7576 320.892 52.5 320.892 55.7273C320.892 59.0455 321.384 61.8333 322.369 64.0909C323.369 66.3485 324.763 68.053 326.551 69.2045C328.339 70.3561 330.407 70.9318 332.756 70.9318C334.074 70.9318 335.294 70.7576 336.415 70.4091C337.551 70.0606 338.559 69.553 339.438 68.8864C340.316 68.2045 341.044 67.3788 341.619 66.4091C342.21 65.4394 342.619 64.3333 342.847 63.0909L352.801 63.1364C352.544 65.2727 351.9 67.3333 350.869 69.3182C349.854 71.2879 348.483 73.053 346.756 74.6136C345.044 76.1591 342.998 77.3864 340.619 78.2955C338.256 79.1894 335.581 79.6364 332.597 79.6364C328.445 79.6364 324.733 78.697 321.46 76.8182C318.203 74.9394 315.627 72.2197 313.733 68.6591C311.854 65.0985 310.915 60.7879 310.915 55.7273C310.915 50.6515 311.869 46.3333 313.778 42.7727C315.688 39.2121 318.278 36.5 321.551 34.6364C324.824 32.7576 328.506 31.8182 332.597 31.8182C335.294 31.8182 337.794 32.197 340.097 32.9545C342.415 33.7121 344.468 34.8182 346.256 36.2727C348.044 37.7121 349.498 39.4773 350.619 41.5682C351.756 43.6591 352.483 46.053 352.801 48.75ZM369.699 32.4545V79H359.858V32.4545H369.699ZM385.818 79H375.273L391.341 32.4545H404.023L420.068 79H409.523L397.864 43.0909H397.5L385.818 79ZM385.159 60.7045H410.068V68.3864H385.159V60.7045ZM449.858 45.8409C449.676 44.0076 448.896 42.5833 447.517 41.5682C446.138 40.553 444.267 40.0455 441.903 40.0455C440.297 40.0455 438.941 40.2727 437.835 40.7273C436.729 41.1667 435.881 41.7803 435.29 42.5682C434.714 43.3561 434.426 44.25 434.426 45.25C434.396 46.0833 434.57 46.8106 434.949 47.4318C435.343 48.053 435.881 48.5909 436.562 49.0455C437.244 49.4848 438.032 49.8712 438.926 50.2045C439.82 50.5227 440.775 50.7955 441.79 51.0227L445.972 52.0227C448.002 52.4773 449.866 53.0833 451.562 53.8409C453.259 54.5985 454.729 55.5303 455.972 56.6364C457.214 57.7424 458.176 59.0455 458.858 60.5455C459.555 62.0455 459.911 63.7652 459.926 65.7045C459.911 68.553 459.184 71.0227 457.744 73.1136C456.32 75.1894 454.259 76.803 451.562 77.9545C448.881 79.0909 445.646 79.6591 441.858 79.6591C438.1 79.6591 434.828 79.0833 432.04 77.9318C429.267 76.7803 427.1 75.0758 425.54 72.8182C423.994 70.5455 423.184 67.7348 423.108 64.3864H432.631C432.737 65.947 433.184 67.25 433.972 68.2955C434.775 69.3258 435.843 70.1061 437.176 70.6364C438.525 71.1515 440.047 71.4091 441.744 71.4091C443.411 71.4091 444.858 71.1667 446.085 70.6818C447.328 70.197 448.29 69.5227 448.972 68.6591C449.653 67.7955 449.994 66.803 449.994 65.6818C449.994 64.6364 449.684 63.7576 449.062 63.0455C448.456 62.3333 447.563 61.7273 446.381 61.2273C445.214 60.7273 443.782 60.2727 442.085 59.8636L437.017 58.5909C433.093 57.6364 429.994 56.1439 427.722 54.1136C425.449 52.0833 424.32 49.3485 424.335 45.9091C424.32 43.0909 425.07 40.6288 426.585 38.5227C428.116 36.4167 430.214 34.7727 432.881 33.5909C435.547 32.4091 438.578 31.8182 441.972 31.8182C445.426 31.8182 448.441 32.4091 451.017 33.5909C453.608 34.7727 455.623 36.4167 457.062 38.5227C458.502 40.6288 459.244 43.0682 459.29 45.8409H449.858ZM497.858 79H481.358V32.4545H497.994C502.676 32.4545 506.706 33.3864 510.085 35.25C513.464 37.0985 516.063 39.7576 517.881 43.2273C519.714 46.697 520.631 50.8485 520.631 55.6818C520.631 60.5303 519.714 64.697 517.881 68.1818C516.063 71.6667 513.449 74.3409 510.04 76.2045C506.646 78.0682 502.585 79 497.858 79ZM491.199 70.5682H497.449C500.358 70.5682 502.805 70.053 504.79 69.0227C506.79 67.9773 508.29 66.3636 509.29 64.1818C510.305 61.9848 510.812 59.1515 510.812 55.6818C510.812 52.2424 510.305 49.4318 509.29 47.25C508.29 45.0682 506.797 43.4621 504.812 42.4318C502.828 41.4015 500.381 40.8864 497.472 40.8864H491.199V70.5682ZM527.92 79V32.4545H559.284V40.5682H537.761V51.6591H557.67V59.7727H537.761V70.8864H559.375V79H527.92ZM567.108 79V32.4545H576.949V70.8864H596.903V79H567.108ZM618.233 32.4545H630.369L643.188 63.7273H643.733L656.551 32.4545H668.688V79H659.142V48.7045H658.756L646.71 78.7727H640.21L628.165 48.5909H627.778V79H618.233V32.4545ZM719.568 55.7273C719.568 60.803 718.606 65.1212 716.682 68.6818C714.773 72.2424 712.167 74.9621 708.864 76.8409C705.576 78.7045 701.879 79.6364 697.773 79.6364C693.636 79.6364 689.924 78.697 686.636 76.8182C683.348 74.9394 680.75 72.2197 678.841 68.6591C676.932 65.0985 675.977 60.7879 675.977 55.7273C675.977 50.6515 676.932 46.3333 678.841 42.7727C680.75 39.2121 683.348 36.5 686.636 34.6364C689.924 32.7576 693.636 31.8182 697.773 31.8182C701.879 31.8182 705.576 32.7576 708.864 34.6364C712.167 36.5 714.773 39.2121 716.682 42.7727C718.606 46.3333 719.568 50.6515 719.568 55.7273ZM709.591 55.7273C709.591 52.4394 709.098 49.6667 708.114 47.4091C707.144 45.1515 705.773 43.4394 704 42.2727C702.227 41.1061 700.152 40.5227 697.773 40.5227C695.394 40.5227 693.318 41.1061 691.545 42.2727C689.773 43.4394 688.394 45.1515 687.409 47.4091C686.439 49.6667 685.955 52.4394 685.955 55.7273C685.955 59.0152 686.439 61.7879 687.409 64.0455C688.394 66.303 689.773 68.0152 691.545 69.1818C693.318 70.3485 695.394 70.9318 697.773 70.9318C700.152 70.9318 702.227 70.3485 704 69.1818C705.773 68.0152 707.144 66.303 708.114 64.0455C709.098 61.7879 709.591 59.0152 709.591 55.7273ZM726.858 32.4545H738.994L751.812 63.7273H752.358L765.176 32.4545H777.312V79H767.767V48.7045H767.381L755.335 78.7727H748.835L736.79 48.5909H736.403V79H726.858V32.4545ZM785.42 79V32.4545H816.784V40.5682H795.261V51.6591H815.17V59.7727H795.261V70.8864H816.875V79H785.42ZM863.54 32.4545V79H855.04L834.79 49.7045H834.449V79H824.608V32.4545H833.244L853.335 61.7273H853.744V32.4545H863.54ZM869.898 40.5682V32.4545H908.125V40.5682H893.875V79H884.148V40.5682H869.898ZM955.068 55.7273C955.068 60.803 954.106 65.1212 952.182 68.6818C950.273 72.2424 947.667 74.9621 944.364 76.8409C941.076 78.7045 937.379 79.6364 933.273 79.6364C929.136 79.6364 925.424 78.697 922.136 76.8182C918.848 74.9394 916.25 72.2197 914.341 68.6591C912.432 65.0985 911.477 60.7879 911.477 55.7273C911.477 50.6515 912.432 46.3333 914.341 42.7727C916.25 39.2121 918.848 36.5 922.136 34.6364C925.424 32.7576 929.136 31.8182 933.273 31.8182C937.379 31.8182 941.076 32.7576 944.364 34.6364C947.667 36.5 950.273 39.2121 952.182 42.7727C954.106 46.3333 955.068 50.6515 955.068 55.7273ZM945.091 55.7273C945.091 52.4394 944.598 49.6667 943.614 47.4091C942.644 45.1515 941.273 43.4394 939.5 42.2727C937.727 41.1061 935.652 40.5227 933.273 40.5227C930.894 40.5227 928.818 41.1061 927.045 42.2727C925.273 43.4394 923.894 45.1515 922.909 47.4091C921.939 49.6667 921.455 52.4394 921.455 55.7273C921.455 59.0152 921.939 61.7879 922.909 64.0455C923.894 66.303 925.273 68.0152 927.045 69.1818C928.818 70.3485 930.894 70.9318 933.273 70.9318C935.652 70.9318 937.727 70.3485 939.5 69.1818C941.273 68.0152 942.644 66.303 943.614 64.0455C944.598 61.7879 945.091 59.0152 945.091 55.7273Z" fill="#FFFEFE"/>
<path d="M17.3542 94.5C15.2882 94.5 13.5321 93.8437 12.086 92.5312C10.6398 91.2188 9.91669 89.625 9.91669 87.75V13.5L18.2219 21.0375L26.4031 13.5L34.7084 21.0375L43.0136 13.5L51.1948 21.0375L59.5 13.5L67.8052 21.0375L75.9865 13.5L84.2917 21.0375L92.5969 13.5L100.778 21.0375L109.083 13.5V87.75C109.083 89.625 108.36 91.2188 106.914 92.5312C105.468 93.8437 103.712 94.5 101.646 94.5H17.3542ZM17.3542 87.75H55.7813V56.25H17.3542V87.75ZM63.2188 87.75H101.646V75.375H63.2188V87.75ZM63.2188 68.625H101.646V56.25H63.2188V68.625ZM17.3542 49.5H101.646V36H17.3542V49.5Z" fill="#FFFEFE"/>
</svg>
